<mxfile host="app.diagrams.net" modified="2024-07-13T12:44:56.247Z" agent="Mozilla/5.0 (Windows NT 10.0; Win64; x64) AppleWebKit/537.36 (KHTML, like Gecko) Chrome/125.0.0.0 Safari/537.36" etag="aMiWQRW_2gWtGI4RUwd8" version="24.6.5" type="github">
  <diagram name="Page-1" id="2YBvvXClWsGukQMizWep">
    <mxGraphModel dx="1434" dy="780" grid="1" gridSize="10" guides="1" tooltips="1" connect="1" arrows="1" fold="1" page="1" pageScale="1" pageWidth="850" pageHeight="1100" math="0" shadow="0">
      <root>
        <mxCell id="0" />
        <mxCell id="1" parent="0" />
        <mxCell id="HgkohzaY-IMT7vrD_noD-5" value="" style="rounded=1;whiteSpace=wrap;html=1;fillColor=#dae8fc;strokeColor=#6c8ebf;" parent="1" vertex="1">
          <mxGeometry x="10" y="180" width="830" height="430" as="geometry" />
        </mxCell>
        <mxCell id="HgkohzaY-IMT7vrD_noD-7" value="&lt;span style=&quot;font-size: 16px;&quot;&gt;Server&lt;/span&gt;" style="rounded=0;whiteSpace=wrap;html=1;fillColor=#fff2cc;strokeColor=#d6b656;" parent="1" vertex="1">
          <mxGeometry x="240" y="230" width="360" height="260" as="geometry" />
        </mxCell>
        <mxCell id="HgkohzaY-IMT7vrD_noD-32" style="edgeStyle=orthogonalEdgeStyle;rounded=0;orthogonalLoop=1;jettySize=auto;html=1;" parent="1" source="HgkohzaY-IMT7vrD_noD-4" target="HgkohzaY-IMT7vrD_noD-31" edge="1">
          <mxGeometry relative="1" as="geometry" />
        </mxCell>
        <mxCell id="HgkohzaY-IMT7vrD_noD-4" value="&lt;span style=&quot;font-size: 16px;&quot;&gt;Client&lt;/span&gt;" style="rounded=0;whiteSpace=wrap;html=1;fillColor=#fa6800;strokeColor=#C73500;fontColor=#000000;" parent="1" vertex="1">
          <mxGeometry x="20" y="315" width="70" height="120" as="geometry" />
        </mxCell>
        <mxCell id="HgkohzaY-IMT7vrD_noD-6" value="User Creation" style="rounded=0;whiteSpace=wrap;html=1;" parent="1" vertex="1">
          <mxGeometry x="345" y="200" width="150" height="25" as="geometry" />
        </mxCell>
        <mxCell id="HgkohzaY-IMT7vrD_noD-33" style="edgeStyle=orthogonalEdgeStyle;rounded=0;orthogonalLoop=1;jettySize=auto;html=1;exitX=0;exitY=0.75;exitDx=0;exitDy=0;entryX=1;entryY=0.75;entryDx=0;entryDy=0;" parent="1" source="HgkohzaY-IMT7vrD_noD-8" target="HgkohzaY-IMT7vrD_noD-10" edge="1">
          <mxGeometry relative="1" as="geometry">
            <Array as="points">
              <mxPoint x="720" y="370" />
              <mxPoint x="640" y="370" />
              <mxPoint x="640" y="416" />
            </Array>
          </mxGeometry>
        </mxCell>
        <mxCell id="HgkohzaY-IMT7vrD_noD-8" value="&lt;span style=&quot;font-size: 16px;&quot;&gt;Database&lt;/span&gt;" style="rounded=0;whiteSpace=wrap;html=1;fillColor=#a20025;strokeColor=#6F0000;fontColor=#ffffff;" parent="1" vertex="1">
          <mxGeometry x="720" y="252.5" width="80" height="160" as="geometry" />
        </mxCell>
        <mxCell id="HgkohzaY-IMT7vrD_noD-26" style="edgeStyle=orthogonalEdgeStyle;rounded=0;orthogonalLoop=1;jettySize=auto;html=1;exitX=1;exitY=0.25;exitDx=0;exitDy=0;" parent="1" source="HgkohzaY-IMT7vrD_noD-9" edge="1">
          <mxGeometry relative="1" as="geometry">
            <Array as="points">
              <mxPoint x="320" y="344" />
              <mxPoint x="550" y="344" />
              <mxPoint x="550" y="330" />
              <mxPoint x="720" y="330" />
            </Array>
            <mxPoint x="720" y="330" as="targetPoint" />
          </mxGeometry>
        </mxCell>
        <mxCell id="HgkohzaY-IMT7vrD_noD-37" style="edgeStyle=orthogonalEdgeStyle;rounded=0;orthogonalLoop=1;jettySize=auto;html=1;exitX=0;exitY=0.75;exitDx=0;exitDy=0;" parent="1" source="HgkohzaY-IMT7vrD_noD-9" edge="1">
          <mxGeometry relative="1" as="geometry">
            <mxPoint x="90" y="420" as="targetPoint" />
            <Array as="points">
              <mxPoint x="260" y="420" />
              <mxPoint x="90" y="420" />
            </Array>
          </mxGeometry>
        </mxCell>
        <mxCell id="HgkohzaY-IMT7vrD_noD-9" value="Verify User details" style="rounded=0;whiteSpace=wrap;html=1;" parent="1" vertex="1">
          <mxGeometry x="260" y="260" width="60" height="177.5" as="geometry" />
        </mxCell>
        <mxCell id="HgkohzaY-IMT7vrD_noD-40" style="edgeStyle=orthogonalEdgeStyle;rounded=0;orthogonalLoop=1;jettySize=auto;html=1;exitX=0.5;exitY=1;exitDx=0;exitDy=0;" parent="1" source="HgkohzaY-IMT7vrD_noD-10" target="HgkohzaY-IMT7vrD_noD-39" edge="1">
          <mxGeometry relative="1" as="geometry" />
        </mxCell>
        <mxCell id="HgkohzaY-IMT7vrD_noD-10" value="Create JWT" style="rounded=0;whiteSpace=wrap;html=1;" parent="1" vertex="1">
          <mxGeometry x="520" y="360" width="60" height="75" as="geometry" />
        </mxCell>
        <mxCell id="HgkohzaY-IMT7vrD_noD-11" value="POST" style="text;html=1;align=center;verticalAlign=middle;whiteSpace=wrap;rounded=0;" parent="1" vertex="1">
          <mxGeometry x="150" y="315" width="60" height="30" as="geometry" />
        </mxCell>
        <mxCell id="HgkohzaY-IMT7vrD_noD-12" value="Email, Password, Username, Country" style="text;html=1;align=center;verticalAlign=middle;whiteSpace=wrap;rounded=0;" parent="1" vertex="1">
          <mxGeometry x="125" y="340" width="110" height="30" as="geometry" />
        </mxCell>
        <mxCell id="HgkohzaY-IMT7vrD_noD-19" value="JWT" style="text;html=1;align=center;verticalAlign=middle;whiteSpace=wrap;rounded=0;" parent="1" vertex="1">
          <mxGeometry x="140" y="420" width="60" height="30" as="geometry" />
        </mxCell>
        <mxCell id="HgkohzaY-IMT7vrD_noD-23" value="1" style="rhombus;whiteSpace=wrap;html=1;fillColor=#60a917;strokeColor=#2D7600;fontColor=#ffffff;" parent="1" vertex="1">
          <mxGeometry x="50" y="322.5" width="40" height="37.5" as="geometry" />
        </mxCell>
        <mxCell id="HgkohzaY-IMT7vrD_noD-25" value="2" style="rhombus;whiteSpace=wrap;html=1;fillColor=#60a917;strokeColor=#2D7600;fontColor=#ffffff;" parent="1" vertex="1">
          <mxGeometry x="270" y="277.5" width="40" height="37.5" as="geometry" />
        </mxCell>
        <mxCell id="HgkohzaY-IMT7vrD_noD-27" value="Username, email, password, country" style="text;html=1;align=center;verticalAlign=middle;whiteSpace=wrap;rounded=0;" parent="1" vertex="1">
          <mxGeometry x="310" y="315" width="240" height="30" as="geometry" />
        </mxCell>
        <mxCell id="HgkohzaY-IMT7vrD_noD-45" style="edgeStyle=orthogonalEdgeStyle;rounded=0;orthogonalLoop=1;jettySize=auto;html=1;" parent="1" source="HgkohzaY-IMT7vrD_noD-30" target="HgkohzaY-IMT7vrD_noD-31" edge="1">
          <mxGeometry relative="1" as="geometry" />
        </mxCell>
        <mxCell id="HgkohzaY-IMT7vrD_noD-30" value="&lt;span style=&quot;font-size: 16px;&quot;&gt;Google Console&lt;/span&gt;" style="rounded=0;whiteSpace=wrap;html=1;fillColor=#e3c800;strokeColor=#B09500;fontColor=#000000;" parent="1" vertex="1">
          <mxGeometry x="140" y="502.5" width="80" height="80" as="geometry" />
        </mxCell>
        <mxCell id="HgkohzaY-IMT7vrD_noD-31" value="&lt;span style=&quot;font-size: 16px;&quot;&gt;User email client&lt;/span&gt;" style="rounded=0;whiteSpace=wrap;html=1;fillColor=#fa6800;strokeColor=#C73500;fontColor=#000000;" parent="1" vertex="1">
          <mxGeometry x="20" y="470" width="80" height="80" as="geometry" />
        </mxCell>
        <mxCell id="HgkohzaY-IMT7vrD_noD-34" style="edgeStyle=orthogonalEdgeStyle;rounded=0;orthogonalLoop=1;jettySize=auto;html=1;exitX=0;exitY=0.5;exitDx=0;exitDy=0;entryX=0.5;entryY=0;entryDx=0;entryDy=0;" parent="1" target="HgkohzaY-IMT7vrD_noD-4" edge="1">
          <mxGeometry relative="1" as="geometry">
            <Array as="points">
              <mxPoint x="260" y="292" />
              <mxPoint x="110" y="292" />
              <mxPoint x="110" y="290" />
              <mxPoint x="55" y="290" />
            </Array>
            <mxPoint x="260" y="270.63" as="sourcePoint" />
            <mxPoint x="89.01999999999998" y="290.88" as="targetPoint" />
          </mxGeometry>
        </mxCell>
        <mxCell id="HgkohzaY-IMT7vrD_noD-35" value="Error" style="text;html=1;align=center;verticalAlign=middle;whiteSpace=wrap;rounded=0;" parent="1" vertex="1">
          <mxGeometry x="110" y="270" width="60" height="30" as="geometry" />
        </mxCell>
        <mxCell id="HgkohzaY-IMT7vrD_noD-36" style="edgeStyle=orthogonalEdgeStyle;rounded=0;orthogonalLoop=1;jettySize=auto;html=1;exitX=0;exitY=0.75;exitDx=0;exitDy=0;entryX=0.983;entryY=0.836;entryDx=0;entryDy=0;entryPerimeter=0;" parent="1" source="HgkohzaY-IMT7vrD_noD-10" target="HgkohzaY-IMT7vrD_noD-9" edge="1">
          <mxGeometry relative="1" as="geometry" />
        </mxCell>
        <mxCell id="HgkohzaY-IMT7vrD_noD-39" value="Create Welcome Email" style="rounded=0;whiteSpace=wrap;html=1;" parent="1" vertex="1">
          <mxGeometry x="435" y="430" width="60" height="50" as="geometry" />
        </mxCell>
        <mxCell id="HgkohzaY-IMT7vrD_noD-44" style="edgeStyle=orthogonalEdgeStyle;rounded=0;orthogonalLoop=1;jettySize=auto;html=1;entryX=1;entryY=0.5;entryDx=0;entryDy=0;" parent="1" source="HgkohzaY-IMT7vrD_noD-42" target="HgkohzaY-IMT7vrD_noD-30" edge="1">
          <mxGeometry relative="1" as="geometry" />
        </mxCell>
        <mxCell id="HgkohzaY-IMT7vrD_noD-42" value="Oauth Verification for google API" style="rounded=0;whiteSpace=wrap;html=1;fillColor=#e3c800;fontColor=#000000;strokeColor=#B09500;" parent="1" vertex="1">
          <mxGeometry x="250" y="502.5" width="80" height="77.5" as="geometry" />
        </mxCell>
        <mxCell id="HgkohzaY-IMT7vrD_noD-43" style="edgeStyle=orthogonalEdgeStyle;rounded=0;orthogonalLoop=1;jettySize=auto;html=1;entryX=1;entryY=0.588;entryDx=0;entryDy=0;entryPerimeter=0;" parent="1" source="HgkohzaY-IMT7vrD_noD-39" target="HgkohzaY-IMT7vrD_noD-42" edge="1">
          <mxGeometry relative="1" as="geometry">
            <Array as="points">
              <mxPoint x="410" y="455" />
              <mxPoint x="410" y="548" />
            </Array>
          </mxGeometry>
        </mxCell>
        <mxCell id="HgkohzaY-IMT7vrD_noD-46" value="JWT" style="text;html=1;align=center;verticalAlign=middle;whiteSpace=wrap;rounded=0;" parent="1" vertex="1">
          <mxGeometry x="350" y="382.5" width="60" height="30" as="geometry" />
        </mxCell>
        <mxCell id="HgkohzaY-IMT7vrD_noD-48" style="edgeStyle=orthogonalEdgeStyle;rounded=0;orthogonalLoop=1;jettySize=auto;html=1;exitX=1;exitY=0.25;exitDx=0;exitDy=0;entryX=0.375;entryY=1;entryDx=0;entryDy=0;entryPerimeter=0;" parent="1" source="HgkohzaY-IMT7vrD_noD-42" target="HgkohzaY-IMT7vrD_noD-7" edge="1">
          <mxGeometry relative="1" as="geometry" />
        </mxCell>
        <mxCell id="HgkohzaY-IMT7vrD_noD-49" value="Error" style="text;html=1;align=center;verticalAlign=middle;whiteSpace=wrap;rounded=0;" parent="1" vertex="1">
          <mxGeometry x="320" y="490" width="60" height="30" as="geometry" />
        </mxCell>
        <mxCell id="HgkohzaY-IMT7vrD_noD-50" value="Email Data, HTML Template, Oauth keys" style="text;html=1;align=center;verticalAlign=middle;whiteSpace=wrap;rounded=0;" parent="1" vertex="1">
          <mxGeometry x="335" y="552.5" width="190" height="30" as="geometry" />
        </mxCell>
        <mxCell id="HgkohzaY-IMT7vrD_noD-51" value="User ID, email, Username" style="text;html=1;align=center;verticalAlign=middle;whiteSpace=wrap;rounded=0;" parent="1" vertex="1">
          <mxGeometry x="650" y="380" width="60" height="30" as="geometry" />
        </mxCell>
        <mxCell id="HgkohzaY-IMT7vrD_noD-52" value="3" style="rhombus;whiteSpace=wrap;html=1;fillColor=#60a917;strokeColor=#2D7600;fontColor=#ffffff;" parent="1" vertex="1">
          <mxGeometry x="740" y="260" width="40" height="37.5" as="geometry" />
        </mxCell>
        <mxCell id="HgkohzaY-IMT7vrD_noD-53" value="4" style="rhombus;whiteSpace=wrap;html=1;fillColor=#60a917;strokeColor=#2D7600;fontColor=#ffffff;" parent="1" vertex="1">
          <mxGeometry x="580" y="378.75" width="40" height="37.5" as="geometry" />
        </mxCell>
        <mxCell id="HgkohzaY-IMT7vrD_noD-54" value="6" style="rhombus;whiteSpace=wrap;html=1;fillColor=#60a917;strokeColor=#2D7600;fontColor=#ffffff;" parent="1" vertex="1">
          <mxGeometry x="465" y="472.5" width="40" height="37.5" as="geometry" />
        </mxCell>
        <mxCell id="HgkohzaY-IMT7vrD_noD-55" value="5" style="rhombus;whiteSpace=wrap;html=1;fillColor=#60a917;strokeColor=#2D7600;fontColor=#ffffff;" parent="1" vertex="1">
          <mxGeometry x="230" y="420" width="40" height="37.5" as="geometry" />
        </mxCell>
        <mxCell id="HgkohzaY-IMT7vrD_noD-56" value="7" style="rhombus;whiteSpace=wrap;html=1;fillColor=#60a917;strokeColor=#2D7600;fontColor=#ffffff;" parent="1" vertex="1">
          <mxGeometry x="320" y="560" width="40" height="37.5" as="geometry" />
        </mxCell>
        <mxCell id="HgkohzaY-IMT7vrD_noD-57" value="8" style="rhombus;whiteSpace=wrap;html=1;fillColor=#60a917;strokeColor=#2D7600;fontColor=#ffffff;" parent="1" vertex="1">
          <mxGeometry x="70" y="545" width="40" height="37.5" as="geometry" />
        </mxCell>
        <mxCell id="8sTA4ZeGQ8Bvm32bSQfZ-4" value="Successful Sign In" style="text;html=1;align=center;verticalAlign=middle;whiteSpace=wrap;rounded=0;" parent="1" vertex="1">
          <mxGeometry x="540" y="345" width="240" height="30" as="geometry" />
        </mxCell>
        <mxCell id="8sTA4ZeGQ8Bvm32bSQfZ-5" style="edgeStyle=orthogonalEdgeStyle;rounded=0;orthogonalLoop=1;jettySize=auto;html=1;exitX=0;exitY=0.25;exitDx=0;exitDy=0;entryX=1;entryY=0.169;entryDx=0;entryDy=0;entryPerimeter=0;" parent="1" source="HgkohzaY-IMT7vrD_noD-8" target="HgkohzaY-IMT7vrD_noD-9" edge="1">
          <mxGeometry relative="1" as="geometry">
            <Array as="points">
              <mxPoint x="720" y="290" />
            </Array>
          </mxGeometry>
        </mxCell>
        <mxCell id="8sTA4ZeGQ8Bvm32bSQfZ-6" value="Error Unsuccessful Sign In" style="text;html=1;align=center;verticalAlign=middle;whiteSpace=wrap;rounded=0;" parent="1" vertex="1">
          <mxGeometry x="415" y="247.5" width="190" height="30" as="geometry" />
        </mxCell>
        <mxCell id="8sTA4ZeGQ8Bvm32bSQfZ-9" style="edgeStyle=orthogonalEdgeStyle;rounded=0;orthogonalLoop=1;jettySize=auto;html=1;entryX=-0.02;entryY=0.628;entryDx=0;entryDy=0;entryPerimeter=0;" parent="1" source="HgkohzaY-IMT7vrD_noD-4" target="HgkohzaY-IMT7vrD_noD-9" edge="1">
          <mxGeometry relative="1" as="geometry" />
        </mxCell>
        <mxCell id="8sTA4ZeGQ8Bvm32bSQfZ-11" value="" style="rounded=1;whiteSpace=wrap;html=1;fillColor=#dae8fc;strokeColor=#6c8ebf;" parent="1" vertex="1">
          <mxGeometry x="10" y="680" width="830" height="430" as="geometry" />
        </mxCell>
        <mxCell id="8sTA4ZeGQ8Bvm32bSQfZ-12" value="&lt;span style=&quot;font-size: 16px;&quot;&gt;Server&lt;/span&gt;" style="rounded=0;whiteSpace=wrap;html=1;fillColor=#fff2cc;strokeColor=#d6b656;" parent="1" vertex="1">
          <mxGeometry x="245" y="765" width="395" height="235" as="geometry" />
        </mxCell>
        <mxCell id="8sTA4ZeGQ8Bvm32bSQfZ-35" style="edgeStyle=orthogonalEdgeStyle;rounded=0;orthogonalLoop=1;jettySize=auto;html=1;entryX=0.5;entryY=0;entryDx=0;entryDy=0;" parent="1" source="8sTA4ZeGQ8Bvm32bSQfZ-13" target="8sTA4ZeGQ8Bvm32bSQfZ-18" edge="1">
          <mxGeometry relative="1" as="geometry" />
        </mxCell>
        <mxCell id="8sTA4ZeGQ8Bvm32bSQfZ-13" value="&lt;span style=&quot;font-size: 16px;&quot;&gt;Client&lt;/span&gt;" style="rounded=0;whiteSpace=wrap;html=1;fillColor=#fa6800;strokeColor=#C73500;fontColor=#000000;" parent="1" vertex="1">
          <mxGeometry x="35" y="812.5" width="70" height="120" as="geometry" />
        </mxCell>
        <mxCell id="8sTA4ZeGQ8Bvm32bSQfZ-14" value="Reset User Password" style="rounded=0;whiteSpace=wrap;html=1;" parent="1" vertex="1">
          <mxGeometry x="355" y="720" width="150" height="25" as="geometry" />
        </mxCell>
        <mxCell id="8sTA4ZeGQ8Bvm32bSQfZ-24" style="edgeStyle=orthogonalEdgeStyle;rounded=0;orthogonalLoop=1;jettySize=auto;html=1;entryX=1;entryY=0.5;entryDx=0;entryDy=0;" parent="1" source="8sTA4ZeGQ8Bvm32bSQfZ-15" target="8sTA4ZeGQ8Bvm32bSQfZ-16" edge="1">
          <mxGeometry relative="1" as="geometry">
            <Array as="points">
              <mxPoint x="670" y="918" />
            </Array>
          </mxGeometry>
        </mxCell>
        <mxCell id="8sTA4ZeGQ8Bvm32bSQfZ-15" value="&lt;span style=&quot;font-size: 16px;&quot;&gt;Database&lt;/span&gt;" style="rounded=0;whiteSpace=wrap;html=1;fillColor=#e51400;strokeColor=#B20000;fontColor=#ffffff;" parent="1" vertex="1">
          <mxGeometry x="710" y="770" width="80" height="185" as="geometry" />
        </mxCell>
        <mxCell id="8sTA4ZeGQ8Bvm32bSQfZ-23" style="edgeStyle=orthogonalEdgeStyle;rounded=0;orthogonalLoop=1;jettySize=auto;html=1;entryX=1;entryY=0.5;entryDx=0;entryDy=0;" parent="1" source="8sTA4ZeGQ8Bvm32bSQfZ-16" target="8sTA4ZeGQ8Bvm32bSQfZ-19" edge="1">
          <mxGeometry relative="1" as="geometry" />
        </mxCell>
        <mxCell id="8sTA4ZeGQ8Bvm32bSQfZ-16" value="Create Link to Reset Password" style="rounded=0;whiteSpace=wrap;html=1;" parent="1" vertex="1">
          <mxGeometry x="570" y="880" width="60" height="75" as="geometry" />
        </mxCell>
        <mxCell id="8sTA4ZeGQ8Bvm32bSQfZ-34" style="edgeStyle=orthogonalEdgeStyle;rounded=0;orthogonalLoop=1;jettySize=auto;html=1;" parent="1" source="8sTA4ZeGQ8Bvm32bSQfZ-17" target="8sTA4ZeGQ8Bvm32bSQfZ-18" edge="1">
          <mxGeometry relative="1" as="geometry" />
        </mxCell>
        <mxCell id="8sTA4ZeGQ8Bvm32bSQfZ-17" value="&lt;span style=&quot;font-size: 16px;&quot;&gt;Google Console&lt;/span&gt;" style="rounded=0;whiteSpace=wrap;html=1;fillColor=#e3c800;strokeColor=#B09500;fontColor=#000000;" parent="1" vertex="1">
          <mxGeometry x="150" y="1012.5" width="80" height="80" as="geometry" />
        </mxCell>
        <mxCell id="8sTA4ZeGQ8Bvm32bSQfZ-18" value="&lt;span style=&quot;font-size: 16px;&quot;&gt;User email client&lt;/span&gt;" style="rounded=0;whiteSpace=wrap;html=1;fillColor=#fa6800;strokeColor=#C73500;fontColor=#000000;" parent="1" vertex="1">
          <mxGeometry x="30" y="980" width="80" height="80" as="geometry" />
        </mxCell>
        <mxCell id="8sTA4ZeGQ8Bvm32bSQfZ-19" value="Create Email to users Account" style="rounded=0;whiteSpace=wrap;html=1;" parent="1" vertex="1">
          <mxGeometry x="435" y="910" width="60" height="80" as="geometry" />
        </mxCell>
        <mxCell id="8sTA4ZeGQ8Bvm32bSQfZ-33" style="edgeStyle=orthogonalEdgeStyle;rounded=0;orthogonalLoop=1;jettySize=auto;html=1;entryX=1;entryY=0.5;entryDx=0;entryDy=0;" parent="1" source="8sTA4ZeGQ8Bvm32bSQfZ-20" target="8sTA4ZeGQ8Bvm32bSQfZ-17" edge="1">
          <mxGeometry relative="1" as="geometry" />
        </mxCell>
        <mxCell id="8sTA4ZeGQ8Bvm32bSQfZ-20" value="Oauth Verification for google API" style="rounded=0;whiteSpace=wrap;html=1;fillColor=#e3c800;fontColor=#000000;strokeColor=#B09500;" parent="1" vertex="1">
          <mxGeometry x="260" y="1012.5" width="80" height="77.5" as="geometry" />
        </mxCell>
        <mxCell id="8sTA4ZeGQ8Bvm32bSQfZ-21" style="edgeStyle=orthogonalEdgeStyle;rounded=0;orthogonalLoop=1;jettySize=auto;html=1;entryX=1;entryY=0.588;entryDx=0;entryDy=0;entryPerimeter=0;" parent="1" source="8sTA4ZeGQ8Bvm32bSQfZ-19" target="8sTA4ZeGQ8Bvm32bSQfZ-20" edge="1">
          <mxGeometry relative="1" as="geometry">
            <Array as="points">
              <mxPoint x="420" y="965" />
              <mxPoint x="420" y="1058" />
            </Array>
          </mxGeometry>
        </mxCell>
        <mxCell id="8sTA4ZeGQ8Bvm32bSQfZ-22" value="7" style="rhombus;whiteSpace=wrap;html=1;fillColor=#60a917;strokeColor=#2D7600;fontColor=#ffffff;" parent="1" vertex="1">
          <mxGeometry x="80" y="1055" width="40" height="37.5" as="geometry" />
        </mxCell>
        <mxCell id="v09Y5QF75JAfNXx2DeJx-5" style="edgeStyle=orthogonalEdgeStyle;rounded=0;orthogonalLoop=1;jettySize=auto;html=1;exitX=-0.05;exitY=0.097;exitDx=0;exitDy=0;entryX=0.5;entryY=0;entryDx=0;entryDy=0;exitPerimeter=0;" edge="1" parent="1" source="8sTA4ZeGQ8Bvm32bSQfZ-25" target="8sTA4ZeGQ8Bvm32bSQfZ-13">
          <mxGeometry relative="1" as="geometry">
            <Array as="points">
              <mxPoint x="183" y="811" />
              <mxPoint x="183" y="790" />
              <mxPoint x="70" y="790" />
            </Array>
          </mxGeometry>
        </mxCell>
        <mxCell id="8sTA4ZeGQ8Bvm32bSQfZ-25" value="Verify User Email Exists" style="rounded=0;whiteSpace=wrap;html=1;" parent="1" vertex="1">
          <mxGeometry x="260" y="793.75" width="60" height="177.5" as="geometry" />
        </mxCell>
        <mxCell id="8sTA4ZeGQ8Bvm32bSQfZ-26" style="edgeStyle=orthogonalEdgeStyle;rounded=0;orthogonalLoop=1;jettySize=auto;html=1;entryX=-0.007;entryY=0.455;entryDx=0;entryDy=0;entryPerimeter=0;" parent="1" source="8sTA4ZeGQ8Bvm32bSQfZ-13" target="8sTA4ZeGQ8Bvm32bSQfZ-25" edge="1">
          <mxGeometry relative="1" as="geometry" />
        </mxCell>
        <mxCell id="8sTA4ZeGQ8Bvm32bSQfZ-28" value="POST" style="text;html=1;align=center;verticalAlign=middle;whiteSpace=wrap;rounded=0;" parent="1" vertex="1">
          <mxGeometry x="150" y="832.5" width="60" height="30" as="geometry" />
        </mxCell>
        <mxCell id="8sTA4ZeGQ8Bvm32bSQfZ-29" value="User Email" style="text;html=1;align=center;verticalAlign=middle;whiteSpace=wrap;rounded=0;" parent="1" vertex="1">
          <mxGeometry x="125" y="850" width="110" height="30" as="geometry" />
        </mxCell>
        <mxCell id="8sTA4ZeGQ8Bvm32bSQfZ-30" value="User Email" style="text;html=1;align=center;verticalAlign=middle;whiteSpace=wrap;rounded=0;" parent="1" vertex="1">
          <mxGeometry x="465" y="826.25" width="110" height="30" as="geometry" />
        </mxCell>
        <mxCell id="8sTA4ZeGQ8Bvm32bSQfZ-31" style="edgeStyle=orthogonalEdgeStyle;rounded=0;orthogonalLoop=1;jettySize=auto;html=1;exitX=1;exitY=0.25;exitDx=0;exitDy=0;entryX=0.02;entryY=0.436;entryDx=0;entryDy=0;entryPerimeter=0;" parent="1" source="8sTA4ZeGQ8Bvm32bSQfZ-25" target="8sTA4ZeGQ8Bvm32bSQfZ-15" edge="1">
          <mxGeometry relative="1" as="geometry">
            <Array as="points">
              <mxPoint x="320" y="850" />
              <mxPoint x="705" y="850" />
            </Array>
          </mxGeometry>
        </mxCell>
        <mxCell id="8sTA4ZeGQ8Bvm32bSQfZ-36" style="edgeStyle=orthogonalEdgeStyle;rounded=0;orthogonalLoop=1;jettySize=auto;html=1;entryX=0.98;entryY=0.09;entryDx=0;entryDy=0;entryPerimeter=0;exitX=0.01;exitY=0.146;exitDx=0;exitDy=0;exitPerimeter=0;" parent="1" source="8sTA4ZeGQ8Bvm32bSQfZ-15" target="8sTA4ZeGQ8Bvm32bSQfZ-25" edge="1">
          <mxGeometry relative="1" as="geometry" />
        </mxCell>
        <mxCell id="8sTA4ZeGQ8Bvm32bSQfZ-38" value="Error Email doesn&#39;t exist" style="text;html=1;align=center;verticalAlign=middle;whiteSpace=wrap;rounded=0;" parent="1" vertex="1">
          <mxGeometry x="355" y="785" width="170" height="30" as="geometry" />
        </mxCell>
        <mxCell id="8sTA4ZeGQ8Bvm32bSQfZ-40" value="User Email, Access Token" style="text;html=1;align=center;verticalAlign=middle;whiteSpace=wrap;rounded=0;" parent="1" vertex="1">
          <mxGeometry x="640" y="932.5" width="70" height="30" as="geometry" />
        </mxCell>
        <mxCell id="8sTA4ZeGQ8Bvm32bSQfZ-41" value="User Email, Access Token" style="text;html=1;align=center;verticalAlign=middle;whiteSpace=wrap;rounded=0;" parent="1" vertex="1">
          <mxGeometry x="490" y="960" width="90" height="30" as="geometry" />
        </mxCell>
        <mxCell id="8sTA4ZeGQ8Bvm32bSQfZ-44" value="POST" style="text;html=1;align=center;verticalAlign=middle;whiteSpace=wrap;rounded=0;" parent="1" vertex="1">
          <mxGeometry x="150" y="902.5" width="60" height="30" as="geometry" />
        </mxCell>
        <mxCell id="8sTA4ZeGQ8Bvm32bSQfZ-45" value="Email, New Password, Access Token" style="text;html=1;align=center;verticalAlign=middle;whiteSpace=wrap;rounded=0;" parent="1" vertex="1">
          <mxGeometry x="105" y="925" width="155" height="30" as="geometry" />
        </mxCell>
        <mxCell id="8sTA4ZeGQ8Bvm32bSQfZ-46" style="edgeStyle=orthogonalEdgeStyle;rounded=0;orthogonalLoop=1;jettySize=auto;html=1;exitX=1;exitY=0.25;exitDx=0;exitDy=0;" parent="1" source="8sTA4ZeGQ8Bvm32bSQfZ-18" edge="1">
          <mxGeometry relative="1" as="geometry">
            <Array as="points">
              <mxPoint x="130" y="1000" />
              <mxPoint x="130" y="960" />
              <mxPoint x="257" y="960" />
            </Array>
            <mxPoint x="260" y="960" as="targetPoint" />
          </mxGeometry>
        </mxCell>
        <mxCell id="8sTA4ZeGQ8Bvm32bSQfZ-47" value="1" style="rhombus;whiteSpace=wrap;html=1;fillColor=#60a917;strokeColor=#2D7600;fontColor=#ffffff;" parent="1" vertex="1">
          <mxGeometry x="90" y="822.5" width="40" height="37.5" as="geometry" />
        </mxCell>
        <mxCell id="8sTA4ZeGQ8Bvm32bSQfZ-48" value="2" style="rhombus;whiteSpace=wrap;html=1;fillColor=#60a917;strokeColor=#2D7600;fontColor=#ffffff;" parent="1" vertex="1">
          <mxGeometry x="270" y="812.5" width="40" height="37.5" as="geometry" />
        </mxCell>
        <mxCell id="8sTA4ZeGQ8Bvm32bSQfZ-50" value="3" style="rhombus;whiteSpace=wrap;html=1;fillColor=#60a917;strokeColor=#2D7600;fontColor=#ffffff;" parent="1" vertex="1">
          <mxGeometry x="730" y="795" width="40" height="37.5" as="geometry" />
        </mxCell>
        <mxCell id="8sTA4ZeGQ8Bvm32bSQfZ-51" value="4" style="rhombus;whiteSpace=wrap;html=1;fillColor=#60a917;strokeColor=#2D7600;fontColor=#ffffff;" parent="1" vertex="1">
          <mxGeometry x="580" y="952.5" width="40" height="37.5" as="geometry" />
        </mxCell>
        <mxCell id="8sTA4ZeGQ8Bvm32bSQfZ-52" value="5" style="rhombus;whiteSpace=wrap;html=1;fillColor=#60a917;strokeColor=#2D7600;fontColor=#ffffff;" parent="1" vertex="1">
          <mxGeometry x="445" y="990" width="40" height="37.5" as="geometry" />
        </mxCell>
        <mxCell id="8sTA4ZeGQ8Bvm32bSQfZ-53" value="6" style="rhombus;whiteSpace=wrap;html=1;fillColor=#60a917;strokeColor=#2D7600;fontColor=#ffffff;" parent="1" vertex="1">
          <mxGeometry x="330" y="1001.25" width="40" height="37.5" as="geometry" />
        </mxCell>
        <mxCell id="v09Y5QF75JAfNXx2DeJx-1" value="User Email, Username" style="text;html=1;align=center;verticalAlign=middle;whiteSpace=wrap;rounded=0;" vertex="1" parent="1">
          <mxGeometry x="492.5" y="457.5" width="95" height="30" as="geometry" />
        </mxCell>
        <mxCell id="v09Y5QF75JAfNXx2DeJx-2" style="edgeStyle=orthogonalEdgeStyle;rounded=0;orthogonalLoop=1;jettySize=auto;html=1;exitX=0.5;exitY=1;exitDx=0;exitDy=0;" edge="1" parent="1" source="v09Y5QF75JAfNXx2DeJx-1" target="v09Y5QF75JAfNXx2DeJx-1">
          <mxGeometry relative="1" as="geometry" />
        </mxCell>
        <mxCell id="v09Y5QF75JAfNXx2DeJx-4" value="User Email,&lt;div&gt;HTML Template, Oauth Keys Access Token&lt;/div&gt;" style="text;html=1;align=center;verticalAlign=middle;whiteSpace=wrap;rounded=0;" vertex="1" parent="1">
          <mxGeometry x="340" y="1055" width="260" height="30" as="geometry" />
        </mxCell>
        <mxCell id="v09Y5QF75JAfNXx2DeJx-6" value="Error Email doesn&#39;t exist" style="text;html=1;align=center;verticalAlign=middle;whiteSpace=wrap;rounded=0;" vertex="1" parent="1">
          <mxGeometry x="70" y="763.75" width="170" height="30" as="geometry" />
        </mxCell>
      </root>
    </mxGraphModel>
  </diagram>
</mxfile>
